<?xml version="1.0" encoding="utf-8"?><svg viewBox="0 0 35 35" xmlns="http://www.w3.org/2000/svg" xmlns:xlink="http://www.w3.org/1999/xlink"><style>:root>svg{display:none}:root>svg:target{display:block}</style><svg viewBox="0 0 35 35" id="facebook" xmlns="http://www.w3.org/2000/svg"><rect x=".5" y=".5" width="34" height="34" rx="9.5"/><g clip-path="url(#aa)"><path fill-rule="evenodd" clip-rule="evenodd" d="M8 18.056c0 4.971 3.61 9.106 8.333 9.944v-7.223h-2.5V18h2.5v-2.223c0-2.5 1.611-3.888 3.89-3.888.721 0 1.5.111 2.221.222v2.556h-1.277c-1.223 0-1.5.61-1.5 1.389V18h2.666l-.444 2.777h-2.222V28C24.389 27.162 28 23.028 28 18.056 28 12.525 23.5 8 18 8S8 12.525 8 18.056z"/></g><defs><clipPath id="aa"><path transform="translate(8 8)" d="M0 0h20v20H0z"/></clipPath></defs></svg><svg viewBox="0 0 35 35" id="instagram" xmlns="http://www.w3.org/2000/svg"><rect x=".5" y=".5" width="34" height="34" rx="9.5"/><path d="M25.456 14.921a5.441 5.441 0 00-.35-1.847 3.841 3.841 0 00-2.193-2.194 5.505 5.505 0 00-1.822-.35c-.802-.036-1.056-.046-3.09-.046-2.036 0-2.297 0-3.093.046a5.504 5.504 0 00-1.82.35 3.84 3.84 0 00-2.195 2.194 5.462 5.462 0 00-.349 1.821c-.036.803-.046 1.057-.046 3.092s0 2.295.046 3.091c.013.624.13 1.239.35 1.823a3.84 3.84 0 002.194 2.193 5.488 5.488 0 001.821.375c.803.036 1.057.047 3.092.047s2.296 0 3.092-.047a5.493 5.493 0 001.821-.349 3.846 3.846 0 002.194-2.194c.22-.583.337-1.198.35-1.822.035-.802.046-1.056.046-3.092-.001-2.035-.001-2.293-.048-3.091zm-7.46 6.914a3.852 3.852 0 01-3.853-3.852 3.852 3.852 0 113.852 3.852zM22 14.886a.896.896 0 01-.83-1.242.898.898 0 11.83 1.242z"/><path d="M17.995 20.485a2.503 2.503 0 100-5.005 2.503 2.503 0 000 5.005z"/></svg><svg viewBox="0 0 35 35" id="linkdin" xmlns="http://www.w3.org/2000/svg"><rect x=".5" y=".5" width="34" height="34" rx="9.5"/><rect x="8" y="8" width="20" height="20" rx="5"/><path d="M15.239 23h-2.074v-6.676h2.074V23zM14.2 15.413a1.21 1.21 0 01-.85-2.061 1.2 1.2 0 012.05.849 1.21 1.21 0 01-1.2 1.212zM22.998 23H20.93v-3.25c0-.774-.016-1.768-1.078-1.768-1.078 0-1.244.842-1.244 1.713V23h-2.07v-6.676h1.988v.91h.029c.276-.524.952-1.078 1.961-1.078 2.098 0 2.484 1.382 2.484 3.177V23h-.002z"/></svg><svg viewBox="0 0 35 35" id="twitter" xmlns="http://www.w3.org/2000/svg"><rect x=".5" y=".5" width="34" height="34" rx="9.5"/><path d="M27.922 11.825a7.774 7.774 0 01-2.23.61 3.891 3.891 0 001.707-2.148 7.751 7.751 0 01-2.465.942 3.883 3.883 0 00-6.615 3.541 11.025 11.025 0 01-8.001-4.056 3.884 3.884 0 001.202 5.183 3.873 3.873 0 01-1.76-.486v.05a3.883 3.883 0 003.115 3.807 3.91 3.91 0 01-1.753.067 3.884 3.884 0 003.626 2.695A7.79 7.79 0 019 23.638a10.98 10.98 0 005.95 1.744c7.142 0 11.046-5.915 11.046-11.045 0-.167-.004-.335-.012-.502a7.891 7.891 0 001.936-2.008l.002-.002z"/></svg></svg>